<?xml version="1.0" encoding="UTF-8"?>
<!DOCTYPE svg PUBLIC "-//W3C//DTD SVG 1.1//EN" "http://www.w3.org/Graphics/SVG/1.1/DTD/svg11.dtd">
<!-- Creator: CorelDRAW -->
<svg xmlns="http://www.w3.org/2000/svg" xml:space="preserve" width="84.3038mm" height="17.2259mm" version="1.1" style="shape-rendering:geometricPrecision; text-rendering:geometricPrecision; image-rendering:optimizeQuality; fill-rule:evenodd; clip-rule:evenodd"
viewBox="0 0 2263.85 462.57"
 xmlns:xlink="http://www.w3.org/1999/xlink"
 xmlns:xodm="http://www.corel.com/coreldraw/odm/2003">
 <defs>
  <style type="text/css">
   <![CDATA[
    .fil0 {fill:white}
   ]]>
  </style>
 </defs>
 <g id="Layer_x0020_1">
  <metadata id="CorelCorpID_0Corel-Layer"/>
  <path class="fil0" d="M377.9 387.84c-114.01,2.49 -241.46,4.54 -377.9,6.22l0 -394.06 2263.85 0 0 394.06c-136.44,-1.68 -263.89,-3.72 -377.9,-6.22 23.16,47.18 2.51,74.73 -42.27,74.73 21.92,-42.53 23.43,-89.51 -16.59,-88.57 -24.42,0.57 -7.18,44.89 -27.92,35.45 -30.67,-18.74 -6.7,-55.09 60.78,-194.3 12.27,-24.1 24.54,-50.86 36.81,-74.96l42.94 -85.66 -58.28 77.64c-22.46,35.56 -211.2,304.03 -269.95,278.41 36.81,-48.19 70.55,-120.47 101.23,-184.72 3.07,-13.38 9.2,-24.09 15.34,-40.15l49.07 -104.4 -64.41 96.37c-58.29,88.34 -119.63,144.56 -165.65,174.01 -18.4,13.38 -36.81,18.74 -49.08,24.08 -9.2,2.69 -18.41,2.69 -21.47,0 15.34,-21.41 27.61,-45.5 39.87,-72.28 15.35,-26.77 27.61,-56.21 39.88,-88.34l21.47 -66.92 -39.87 58.9c-92.02,128.5 -239.23,203.71 -315.96,214.16 -7.05,0.96 -2.16,18.16 8.42,41.29l-16.83 0c-34.86,-70.88 -54.71,-141.2 -62.27,-208.34 -10.49,-93.17 -16.48,-202.01 -19.3,-242.71 -2.83,40.71 -8.81,149.54 -19.3,242.71 -7.56,67.14 -27.4,137.46 -62.27,208.34l-16.83 0c10.59,-23.13 15.48,-40.33 8.42,-41.29 -76.73,-10.45 -223.93,-85.67 -315.96,-214.16l-39.87 -58.9 21.47 66.92c12.27,32.13 24.53,61.57 39.88,88.34 12.27,26.77 24.54,50.87 39.87,72.28 -3.06,2.69 -12.27,2.69 -21.47,0 -12.27,-5.35 -30.68,-10.71 -49.08,-24.08 -46.02,-29.45 -107.36,-85.67 -165.65,-174.01l-64.41 -96.37 49.07 104.4c6.14,16.06 12.27,26.77 15.34,40.15 30.68,64.25 64.42,136.53 101.23,184.72 -58.75,25.62 -247.49,-242.85 -269.95,-278.41l-58.28 -77.64 42.94 85.66c12.27,24.1 24.54,50.87 36.81,74.96 67.48,139.21 91.45,175.56 60.78,194.3 -20.74,9.44 -3.5,-34.88 -27.92,-35.45 -40.02,-0.93 -38.51,46.04 -16.59,88.57 -44.78,0 -65.43,-27.55 -42.27,-74.73z"/>
 </g>
</svg>
