<?xml version="1.0" encoding="UTF-8"?>
<!DOCTYPE svg PUBLIC "-//W3C//DTD SVG 1.1//EN" "http://www.w3.org/Graphics/SVG/1.1/DTD/svg11.dtd">
<!-- Creator: CorelDRAW -->
<svg xmlns="http://www.w3.org/2000/svg" xml:space="preserve" width="138.434mm" height="13.4666mm" version="1.1" style="shape-rendering:geometricPrecision; text-rendering:geometricPrecision; image-rendering:optimizeQuality; fill-rule:evenodd; clip-rule:evenodd"
viewBox="0 0 6189.59 602.11"
 xmlns:xlink="http://www.w3.org/1999/xlink"
 xmlns:xodm="http://www.corel.com/coreldraw/odm/2003">
 <defs>
  <style type="text/css">
   <![CDATA[
    .fil0 {fill:#232222}
   ]]>
  </style>
 </defs>
 <g id="Layer_x0020_1">
  <metadata id="CorelCorpID_0Corel-Layer"/>
  <path class="fil0" d="M3657.97 293.66c66.05,-1.54 -7.49,157.97 -76.09,120.07 -39.67,-23.67 -11.59,-73.11 -6.64,-94.78 -14.92,10.85 -29.82,23.86 -44.73,32.53 -24.86,15.18 -54.67,19.52 -79.53,2.17 -4.52,-1.97 -20.76,-19.26 -24.85,-28.19 -7.45,4.34 -14.91,6.51 -22.36,8.68 -19.88,6.51 -44.73,4.34 -62.13,-8.68 -7.45,-4.34 -12.42,-10.84 -14.91,-19.52l-2.48 -8.67c-17.4,8.67 -34.79,17.35 -52.19,23.85 -22.37,8.68 -44.73,15.18 -69.58,19.52 -24.85,4.34 7.86,70.45 38.96,128.39 -19.32,-11.2 -91.09,-134.71 -73.75,-137.07 62.16,-8.46 181.41,-69.4 255.96,-173.5l32.3 -47.71 -17.39 54.22c-9.94,26.03 -19.87,49.88 -32.31,71.56 -9.94,21.69 -19.88,41.21 -32.3,58.55 2.48,2.17 9.94,2.17 17.39,0 9.94,-4.33 24.86,-8.67 39.76,-19.51 37.28,-23.86 86.98,-69.4 134.2,-140.97l52.18 -78.07 -39.76 84.58c-4.97,13.01 -9.94,21.69 -12.43,32.53 -24.85,52.05 -52.19,110.6 -82.01,149.64 47.6,20.76 200.49,-196.74 218.69,-225.55l47.21 -62.9 -34.79 69.4c-9.94,19.52 -19.88,41.21 -29.82,60.73 -54.67,112.78 -74.09,142.22 -49.24,157.41 16.8,7.65 2.84,-28.26 22.62,-28.72zm50.94 44.38c816.32,17.08 2415.61,-10.57 2480.68,-16.33 -233.99,-8.4 -1725.72,-0.24 -2483.94,-16.84 4.34,8.83 5.33,20.66 3.26,33.17zm-30.28 54.2c823.12,16.08 2392.65,-11.11 2457.1,-16.81 -228.89,-8.21 -1661.2,-0.59 -2433.25,-15.79 -5.3,12.21 -13.35,23.8 -23.84,32.6zm-402.49 136.11c-97.5,-69.63 -98.74,-106.1 -165.15,-206.3l-16.19 -4.16 0 -317.89c2.29,32.98 7.14,121.15 15.64,196.63 11.94,106.03 61.67,221.84 165.7,331.72zm91.31 -108.17c38.76,0 70.19,46.41 70.19,103.66 0,5.24 -0.26,10.4 -0.77,15.43 -5.05,-49.94 -34.2,-88.24 -69.41,-88.24 -35.22,0 -64.37,38.3 -69.42,88.24 -0.51,-5.03 -0.77,-10.19 -0.77,-15.43 0,-57.25 31.42,-103.66 70.19,-103.66zm169.99 0c38.76,0 70.19,46.41 70.19,103.66 0,5.24 -0.27,10.4 -0.77,15.43 -5.05,-49.94 -34.2,-88.24 -69.41,-88.24 -35.22,0 -64.37,38.3 -69.42,88.24 -0.51,-5.03 -0.77,-10.19 -0.77,-15.43 0,-57.25 31.42,-103.66 70.19,-103.66zm-1005.81 -126.53c-66.05,-1.54 7.49,157.97 76.09,120.07 39.67,-23.67 11.59,-73.11 6.64,-94.78 14.92,10.85 29.82,23.86 44.73,32.53 24.86,15.18 54.67,19.52 79.53,2.17 4.52,-1.97 20.76,-19.26 24.85,-28.19 7.45,4.34 14.91,6.51 22.36,8.68 19.88,6.51 44.73,4.34 62.13,-8.68 7.45,-4.34 12.42,-10.84 14.91,-19.52l2.48 -8.67c17.4,8.67 34.79,17.35 52.19,23.85 22.37,8.68 44.73,15.18 69.58,19.52 24.85,4.34 -7.86,70.45 -38.96,128.39 19.32,-11.2 91.09,-134.71 73.75,-137.07 -62.16,-8.46 -181.41,-69.4 -255.96,-173.5l-32.3 -47.71 17.39 54.22c9.94,26.03 19.87,49.88 32.31,71.56 9.94,21.69 19.88,41.21 32.3,58.55 -2.48,2.17 -9.94,2.17 -17.39,0 -9.94,-4.33 -24.86,-8.67 -39.76,-19.51 -37.28,-23.86 -86.98,-69.4 -134.2,-140.97l-52.18 -78.07 39.76 84.58c4.97,13.01 9.94,21.69 12.43,32.53 24.85,52.05 52.19,110.6 82.01,149.64 -47.6,20.76 -200.49,-196.74 -218.69,-225.55l-47.21 -62.9 34.79 69.4c9.94,19.52 19.88,41.21 29.82,60.73 54.67,112.78 74.09,142.22 49.24,157.41 -16.8,7.65 -2.84,-28.26 -22.62,-28.72zm-50.94 44.38c-816.32,17.08 -2415.61,-10.57 -2480.68,-16.33 233.99,-8.4 1725.72,-0.24 2483.94,-16.84 -4.34,8.83 -5.33,20.66 -3.26,33.17zm30.28 54.2c-823.12,16.08 -2392.65,-11.11 -2457.1,-16.81 228.89,-8.21 1661.2,-0.59 2433.25,-15.79 5.3,12.21 13.35,23.8 23.84,32.6zm402.49 136.11c97.5,-69.63 98.74,-106.1 165.15,-206.3l16.19 -4.16 0 -317.89c-2.29,32.98 -7.14,121.15 -15.64,196.63 -11.94,106.03 -61.67,221.84 -165.7,331.72zm-91.31 -108.17c-38.76,0 -70.19,46.41 -70.19,103.66 0,5.24 0.26,10.4 0.77,15.43 5.05,-49.94 34.2,-88.24 69.41,-88.24 35.22,0 64.37,38.3 69.42,88.24 0.51,-5.03 0.77,-10.19 0.77,-15.43 0,-57.25 -31.42,-103.66 -70.19,-103.66zm-169.99 0c-38.76,0 -70.19,46.41 -70.19,103.66 0,5.24 0.27,10.4 0.77,15.43 5.05,-49.94 34.2,-88.24 69.41,-88.24 35.22,0 64.37,38.3 69.42,88.24 0.51,-5.03 0.77,-10.19 0.77,-15.43 0,-57.25 -31.42,-103.66 -70.19,-103.66zm442.64 -8.39c61.95,0 112.17,74.17 112.17,165.66 0,8.38 -0.42,16.61 -1.23,24.66 -8.07,-79.81 -54.66,-141.02 -110.93,-141.02 -56.28,0 -102.87,61.21 -110.93,141.02 -0.81,-8.05 -1.23,-16.27 -1.23,-24.66 0,-91.49 50.22,-165.66 112.17,-165.66z"/>
 </g>
</svg>
