<?xml version="1.0" encoding="UTF-8"?>
<!DOCTYPE svg PUBLIC "-//W3C//DTD SVG 1.1//EN" "http://www.w3.org/Graphics/SVG/1.1/DTD/svg11.dtd">
<!-- Creator: CorelDRAW -->
<svg xmlns="http://www.w3.org/2000/svg" xml:space="preserve" width="135.536mm" height="122.311mm" version="1.1" style="shape-rendering:geometricPrecision; text-rendering:geometricPrecision; image-rendering:optimizeQuality; fill-rule:evenodd; clip-rule:evenodd"
viewBox="0 0 5564.5 5021.55"
 xmlns:xlink="http://www.w3.org/1999/xlink"
 xmlns:xodm="http://www.corel.com/coreldraw/odm/2003">
 <defs>
  <style type="text/css">
   <![CDATA[
    .fil0 {fill:#020202}
   ]]>
  </style>
 </defs>
 <g id="Layer_x0020_1">
  <metadata id="CorelCorpID_0Corel-Layer"/>
  <path class="fil0" d="M884.37 1434.74l634.45 1.33c4.67,20.15 -11.22,35.61 -19.94,49.37l-27.04 53.27c-16.74,34.06 -15.7,36.1 -26.97,67.12 -1.93,5.3 -3.15,5.19 -5.44,11.1l-20.94 69.95c-5.39,13.23 -2.44,17.32 -4.91,31.38 -2.51,14.28 -5.58,8.92 -8.8,23.24 -2.24,9.96 -2.15,20.95 -4.38,31.26 -23.93,110.29 18.84,97.03 -98.93,97.03 -66.58,0 -399.12,-7.24 -425.58,7.9 -29.86,17.08 -48.71,52.1 -40.51,85.64l11.63 33.83c3.9,10.78 9.75,13.06 18.47,18.54 35.28,22.12 37.36,17.71 84.9,17.69l364.98 0c67.57,0 75.37,-17.97 77.42,43.94l22.59 112.3c3.96,12.17 7.07,12.08 9.99,30.66 7.99,50.7 60.54,175.93 87.59,225.93l13.29 28.25c9.15,21.89 20.19,37.47 33.63,56.9 4.41,6.38 3.47,4.2 7.9,12.15l61.58 95.17c24.9,45.62 64.19,85.91 96.11,126.78 6.34,8.12 11.78,14.07 19.48,22.23 5.7,6.05 4.24,4.38 9.87,10.86l235.99 233.32 97.99 79.72c37.57,28.4 14.64,15.83 67.63,50.58 7.28,4.78 3.23,1.68 7.94,5.53l10.51 10.21c0.52,0.51 1.23,1.25 1.76,1.76 25.56,24.5 95.93,66.33 113.28,84.99 13.33,14.34 4.19,49.3 4.05,74.25 -0.18,30.17 -0.07,60.22 0.03,90.38 0.1,31.89 3.78,51.02 7.74,79.72 1.84,13.31 1.88,26.4 3.39,41.95 1.39,14.42 5.37,23.13 7.98,37.53 5.44,30.13 27.23,119.04 36.66,141.37l25.1 60.98c9.66,21.99 15.65,42.82 28.28,62.71 0.41,0.64 0.97,1.5 1.37,2.13l2.73 4.12c4.09,6.57 1.03,0.9 3.65,6.19l64.14 113.77c14.11,19.46 24.24,38.85 40.09,57.29 5.25,6.1 0.87,-0.19 5.97,7.41l36.49 50.74c11.45,18.08 28.19,32.84 41.05,49.85 21.89,28.93 83.66,79.65 113.44,108.67 26.41,25.74 91.99,71.99 125.56,94.07l45.4 31c8.22,4.56 3.35,1.46 8.47,5.07l12.2 8.9c6.31,3.99 9.61,5.39 15.45,8.97l12.62 8.04c30.31,16.06 57.24,11.91 83.45,-6.76 28.02,-19.96 41.38,-55.1 28.23,-90.96 -2.89,-7.87 -10.37,-20.52 -16.53,-28.57 -8.9,-11.63 -63.62,-46.63 -78.37,-54.25 -19.06,-9.86 -32.82,-24.1 -52.88,-37.48 -48.84,-32.59 -99.65,-81.38 -139.47,-124.76 -7.12,-7.76 -15.19,-14.68 -23.23,-21.62 -15.61,-13.48 -27.81,-32.62 -42.2,-48.44 -0.47,-0.52 -1.19,-1.26 -1.67,-1.77 -0.48,-0.53 -1.21,-1.25 -1.7,-1.78l-24.62 -30.99c-0.71,-0.85 -3.62,-4.48 -4.68,-5.84l-26.39 -32.59c-11.16,-15.86 -23.17,-34.67 -34.35,-52.51 -5.49,-8.77 -10.41,-18.93 -16.42,-28.99l-63.66 -123.21c-2.86,-6.21 -0.73,-1.02 -3.48,-7.09l-45.44 -155.56c-3.09,-15.87 0.54,-23.07 -5.21,-37.64 -11.35,-28.77 -9.32,-95.75 -7.04,-127.53 22.22,-1.25 23.52,9.07 39.59,18.74 38.85,23.37 69.93,51.75 109.01,74.87 20.36,12.04 34.16,26.92 53.08,36.91 9.18,4.84 12.76,6.55 20.5,11.36 78.68,48.89 157.82,43.66 226.28,-13.06 10.93,-9.06 25.85,-15.93 37.82,-24.61l144.57 -98.81c9.11,-6.89 26.57,-17.03 36.64,-22.9 25.1,-14.62 46.89,-33.12 70.73,-50.45 12.91,-9.39 23.59,-16.41 36.69,-26.05 12.46,-9.17 22.26,-13.74 34.99,-24.01l36.03 -26.54c5.02,-4.03 10.01,-7.16 16.55,-11.5 9.35,-6.23 10.65,-5.41 18.59,-12.37 12.61,-11.07 21.38,-15.82 36.08,-26.78 13.18,-9.83 19.2,-18.5 30.61,-28.11 8.2,-6.91 0.96,-0.92 8.15,-5.41 35.82,-22.41 60.77,-50.13 95.79,-74.67 20.04,-14.05 19.54,-11.13 49.61,-10.95l917.68 0.04c47.65,0 115.14,5.03 132.65,-46.43 5.51,-16.17 12.74,-32.48 7.38,-51.28 -3.02,-10.61 -13.24,-30.92 -20.1,-38.58 -10.94,-12.22 -22.87,-17.59 -39.77,-23.11 -47.69,-15.58 -808.9,8.77 -847.57,-7.14 3.1,-16.02 26.09,-28.34 36.29,-42.72 6.76,-9.52 15.44,-13.08 23.32,-21.28 21.9,-22.79 37,-46.39 59.74,-68.78 24.46,-24.08 72.57,-86.67 94.18,-117.81l136.35 -224.96c35.64,-78.47 49.08,-115.57 78.83,-199.36l24.82 -95.89c1.48,-21.11 2.69,-21.23 7.7,-37.72 8.21,-27.03 1.4,-69.81 8.6,-100.16 7.64,-32.2 8.61,-111.61 2.75,-141.86 -4.57,-23.62 -6.99,-48.12 -8.45,-75.04l-14.76 -71.51c-15.52,-53.88 -17.11,-77.23 -41.6,-127.88 -9.18,-19 -16.03,-38.95 -25.57,-58.01l-62.88 -107.86c-12.19,-16.03 -27.66,-30.85 -39.37,-47.12l-37.32 -46.55c-7.49,-7.62 -15.06,-12.71 -22.32,-19.31 -8.27,-7.53 -15.03,-13.92 -23.32,-21.77 -29.18,-27.63 -61.42,-53.34 -95.45,-74.68 -36.98,-23.2 -72.75,-42.95 -113.42,-60.42 -5.12,-87.24 -0.87,-186.89 -0.87,-275.48 0,-71.54 7.08,-276.96 -4.88,-338.44 -3.58,-18.41 -4.71,-45.23 -9.5,-59.91 -11.67,-35.71 -19.78,-68.68 -35.6,-102.4l-48 -91.27c-11.15,-18.2 -26.23,-49.23 -41.54,-62.65l-49.91 -51.25c-11.68,-11.29 -23.26,-25.47 -35.43,-33.68 -5.21,-3.51 -6.43,-3.63 -10.8,-6.75 -45.77,-32.69 -91.82,-63.26 -144.78,-81.73 -13.25,-4.62 -10.77,-5.83 -23.73,-10.3 -7.68,-2.65 -19.72,-6.55 -26.85,-8.41 -11.52,-3 -19.24,-1.9 -29.54,-5.61 -23.58,-8.5 -36.51,-7.17 -56.27,-12.68 -54.97,-15.33 -200.67,-7.18 -270.73,-7.18 -738.07,0 -1476.15,0 -2214.23,0 -156.19,0 -146.5,-4.85 -278.95,30.7 -15.51,4.16 -14.13,3.05 -26.44,8.31 -73.31,31.3 -64.65,151.83 23.69,156.52 11.97,0.64 23.02,0.28 32.59,-3.32l49.5 -18.53c93.06,-20.39 533.29,-10.53 648.01,-10.53l1939.62 -0c66.11,0.19 52.11,5.17 94.05,9.86 12.35,1.38 20.08,0.37 31.67,4.14 24.33,7.9 75.6,28.32 95.66,42.51l113.55 91.73c46.28,50.77 39.96,54.66 70.82,103.19 5.5,8.64 9.56,12.87 12.11,21.25 44.95,148.1 32.68,214.34 32.68,384.26 0,66.15 7.34,219.8 -3.79,272.98l-107.67 -11.54c-41.98,-11.95 -97.76,2.45 -116.69,3.67 -65.06,4.22 -76.43,-0.25 -138.42,19.65 -9.58,3.08 -18.02,3.12 -26.19,5.27l-47.27 15.61c-43.95,16.89 -87.38,33.89 -126.69,57.65 -8.8,5.32 -9.26,7.25 -19.81,11.28 -5.43,2.08 -4.92,1.26 -10.53,3.89l-4.69 2.52c-34.63,19.12 -66.24,46.19 -95.88,70.64 -46.89,38.69 -42.03,55.29 -73.9,25.79 -27.26,-25.25 -56.61,-45.41 -86.95,-66.4 -0.84,-0.58 -3.2,-2.27 -4.01,-2.87 -5.65,-4.22 -6.24,-5.28 -11.14,-9.25 -26.9,-21.8 -59.82,-34.97 -89.52,-52.99 -10.82,-6.56 -17.6,-8.67 -28.4,-13.76 -25.81,-12.15 -58.59,-26.74 -85.12,-33.01l-65.38 -18.52c-13.34,-3.6 -23.2,-2.59 -37.05,-5.25 -8.96,-1.72 -16.94,-5.64 -30.03,-7.85 -13.03,-2.19 -22.74,-2.83 -36.22,-4.89 -23.93,-3.65 -45.58,-5.83 -74.2,-6.1 -72.91,-0.69 -149.65,5.6 -215.38,27.95 -31.71,10.79 -62.52,15.4 -93.87,28.48 -17.97,7.5 -41.42,15.11 -57.89,25.55 -18.7,11.86 -40.83,18.13 -60.3,30.32l-5.9 4.27c-2.82,1.97 -8.36,5.55 -12.64,8.4l-48.82 37.48c-59.72,37.73 -16.18,36.12 -120.46,36.12l-650.02 -0c-54.4,-0.08 -94.7,8.65 -110.83,52.48 -13.82,37.57 2.91,97.4 48.28,104.9zm1331.3 -192.92l-137.54 10.18c-34.75,5.74 -95.94,24.86 -127.9,38.67l-52.55 23.57c-55.13,32.55 -105.68,68.78 -151.31,112.94 -0.54,0.52 -1.26,1.26 -1.79,1.78l-57.38 64.11 -83.77 145.96 -36.77 112.94c-5.23,25.32 -11.36,44.53 -12.02,71.45 -0.92,37.36 -9.36,42.95 -9.21,118.14 0.09,46.29 9.62,140.13 24.28,183.11 4.72,13.82 5.3,17.14 7.99,32.98 4.42,26.06 16.84,42.55 20.95,65.63 9.43,52.9 34.54,103.64 60.29,149.82l44.8 84.14c10.94,18.36 23.12,33.38 31.65,52.33 4.13,9.16 1.86,6.79 6.65,13.75l4.61 5.73c0.09,0.12 3.82,5.49 4.34,6.21l36.08 47.19c3.35,5.27 4.91,9.42 7.55,13.45l77.73 92.36c6.67,9.43 1.45,1.9 9.68,10.96 14.02,15.42 1.77,9.2 19.17,21.91l96.86 98.32c68.53,65.85 138.66,126.49 214.2,182.51 15.25,11.31 28.05,27.86 44.96,38.46l218.59 160.05c34.61,24.67 126.39,83.86 149.58,104.25l100.49 66c54.58,32.77 40.94,47.06 109.14,0.42 3.3,-2.26 2.93,-1.8 6.31,-4.07 5.24,-3.51 1.31,-0.89 6.2,-4.3l25.27 -16.83c0.57,-0.47 1.3,-1.19 1.86,-1.66 0.78,-0.65 2.85,-2.6 3.63,-3.23 5.74,-4.65 -3.11,1.77 5.82,-4.31 7.41,-5.05 16.7,-9.62 26.07,-15.67 3.66,-2.36 8.42,-5.61 12.6,-8.31l547.14 -402.06 87.92 -82.39c32.39,-29.37 62.41,-63.18 92.39,-95.34l176.66 -223.12c8.19,-15.21 22.19,-33.73 33.56,-53.35l38.14 -65.75c2.62,-4.68 4.18,-9.12 6.81,-14.16 12.51,-23.91 66.4,-158.62 70.78,-184.57 3.45,-20.48 5.07,-17.93 9.08,-31.99 3.78,-13.27 0.34,-27.43 4.66,-37.44 4.71,-10.94 2.81,3.22 6.83,-13.93 1.85,-7.9 0.9,-16.15 1.51,-24.22 1.54,-20.39 11.83,-38.94 13.96,-66.61 5.87,-76.26 7.74,-168.04 -9.18,-240.54 -3.02,-12.94 -3.1,-23.45 -5.86,-36.22 -6.27,-29.05 -18.08,-67.74 -30.66,-93.76l-32.22 -72.98c-25.08,-51.82 -97.06,-132.29 -140.22,-171.78 -10.75,-9.83 -12.23,-9.71 -23.98,-17.64l-49.47 -34.24c-26.54,-16.94 -52.39,-27.39 -78.38,-46.51 -18.32,-13.48 -37.29,-16.5 -58.25,-24.92 -28.14,-11.31 -66.42,-25.51 -95.86,-28.31 -46.94,-4.46 -72.66,-10.54 -125.36,-10.49 -30.23,0.02 -112.1,8.27 -138.89,16.74 -14.23,4.5 -30.45,5.88 -44.32,11.35l-75.54 28.3c-13.24,6.01 -23.38,11.61 -34.38,17.53l-175.2 123.47 -36.7 40.31c-17.57,21.38 -33.66,42.31 -64.73,44.79 -39.82,3.19 -57.3,-6.49 -77.55,-28.97l-36.63 -43.21c-3.89,-4.75 -7.85,-10.4 -12.23,-15.67 -16.08,-19.34 -39.84,-32.91 -58.38,-49.4 -44.02,-39.17 -77.25,-57.45 -129.26,-82.87l-75.49 -31.69c-21.28,-8.31 -15.9,-6.84 -41.75,-10.24l-47.11 -9.48c-36.14,-4.04 -60.87,-9.58 -98.91,-9.58zm2771.97 3614.14c-35.34,2.5 -73.24,-4.15 -106.37,-7.88 -8.86,-1 -17.33,-0.45 -25.44,-2.87 -11.72,-3.51 -4.42,-4.57 -19.56,-7.24 -29.52,-5.22 -63.78,-11.31 -90.38,-24.95l-40.09 -18.18c-42.32,-18.53 -83.35,-35.69 -121.27,-63.59 -4.62,-3.4 0.44,-0.36 -8.2,-5.35 -29.76,-17.21 -56.2,-37.91 -81.8,-61.32l-123.27 -134.04c-45.33,-60.95 -61.66,-47.9 -142.98,-40.62 -20.18,1.8 -26.12,6.53 -46.37,8.91 -18.36,2.16 -38.07,0.27 -55.29,4.29 -32.24,7.52 -70.59,7.6 -106.89,8.19 -50.15,0.82 -239,4.73 -283.56,-3.17 -23.96,-4.24 -23.64,-7 -50.24,-8.09 -16.18,-0.67 -88.97,-9.16 -102.42,-13.15 -9.37,-2.78 -4.58,-4.9 -19.31,-7.43l-212.51 -52.45c-21.34,-8.55 -62.13,-23.2 -82.61,-21.55 -21.57,1.74 -28.05,8.39 -41.1,18.63 -15.44,12.12 -15.04,13.26 -24.38,31.95 -5.74,11.47 -5.81,4.04 -8.05,19.43 -1.35,9.29 -1.05,21.37 1.65,30.06 14.41,46.5 57.79,59.05 99.64,71.45 56.58,16.77 119.03,43.3 177.53,51.56l92.5 18.48c33.53,12.73 112.45,15.09 152.38,21.25 36.87,5.69 71.21,3.35 108.76,6.48 117.69,9.81 259.4,3.73 377.48,-16.03 55.63,-9.31 48.54,-13.71 84.23,30.01 12.85,15.75 22.74,23.55 34.11,35.34l75.79 73.95c16.3,13.03 27.83,29.68 46.12,40.08 8.4,4.78 3.01,0.88 10.83,6.88 0.58,0.45 1.35,1.12 1.91,1.58l153.23 89.72c0.75,0.36 1.65,0.82 2.39,1.19 38.79,19.83 90.01,36.07 132.12,48.54 8.41,2.49 16.46,3.33 24.83,6.73 15.06,6.12 4.84,4.51 27.3,6.79 24.42,2.48 25.24,9.56 59.13,10.84 39.34,1.49 36.99,11.18 128.59,11.18l111.35 -1.06c23.08,-0.45 95.37,-13.61 110.19,-27.83 27.6,-26.47 37.05,-64.18 20.21,-98.75 -7.85,-16.1 -19.12,-26.03 -30.25,-38.94l-32.19 -37.19c-28.92,-37.94 -60.16,-83.31 -78.51,-127.37l-10.1 -21.04c-0.37,-0.78 -0.74,-1.72 -1.1,-2.51 -5.65,-12.39 -6.52,-12.11 -11.12,-23.42l-38.83 -98.96c-12.62,-35.16 -28.62,-146.74 -24.79,-183.62l109.71 -80.71c8.8,-6.54 15.79,-12.14 23.64,-21.65l97.47 -93.24c26.16,-23.44 44.29,-52.98 67.3,-78.81 53.84,-60.43 102.63,-128.31 135.07,-202.95 4.24,-9.75 -3.09,4.66 3.61,-6.5 3.55,-5.91 1.74,-2.28 5.39,-8.47 20.97,-35.66 37.99,-76.55 54.13,-115.13l23.1 -70.71c5.2,-22.16 7.5,-10.23 10.75,-37.65 2.67,-22.56 12.17,-57.47 17.19,-80.71 2.87,-13.25 2.75,-31.05 5.93,-42.99 5.08,-19.09 6.81,-17.74 7.34,-39.8 1.02,-42.73 8.29,-193.51 -4.59,-223.65 -4.77,-11.16 -4.05,-8.33 -4.77,-23.06 -1.39,-28.24 -0.84,-27.01 -7.61,-47.97 -5,-15.46 -2.26,-26.5 -8.86,-43.19 -5.27,-13.31 -2.61,-8.47 -5.32,-23.26 -3.3,-18.02 -1.23,-2.25 -7.43,-19.46 -2.43,-6.76 -3.06,-14.09 -4.63,-19.84l-52.3 -139.42c-12.27,-33.74 -55.92,-106.05 -76.78,-138.03 -19.7,-30.2 -39.84,-64.7 -63.42,-93.02l-28.76 -33.87c-5.94,-6.95 -4.53,-7.43 -10.02,-14.46 -0.44,-0.56 -1.08,-1.35 -1.54,-1.89l-12.07 -12.01c-11.7,-12.43 -16.24,-16.38 -25.86,-30.17 -12.68,-18.19 -61.41,-63.99 -79.75,-79.68 -71.16,-60.92 -143.59,-119.87 -224.26,-168.53l-61.25 -35.89c-23.18,-11.89 -45.69,-29.7 -71.06,-37.48 -11.28,-3.46 -8.7,-0.67 -18.16,-6.1l-8.41 -5.44c-2.66,-1.48 -6.38,-2.98 -9.34,-4.59 -47.06,-25.66 -98.46,-47.55 -149.09,-65.62l-140.02 -47.46c-7.82,-2.78 -14.73,-3.08 -22.4,-5.23 -31.33,-8.82 -74.77,-15.88 -101.96,13.59 -37.07,40.2 -32.42,99.97 15.62,127.91 21.89,12.73 18.61,7.01 43.84,12.97 8.61,2.03 8.13,4 15.68,7.27 7.48,3.24 13.37,4.06 21.04,6.78l181.9 64.76c6.71,2.69 9.25,5.51 18.13,9.29 15.43,6.58 25.19,7.16 37.23,15.13 15.85,10.5 17.42,10.8 35.92,19.42l216.73 134.44c4.8,3.49 11.56,6.59 17.29,10.61l57.61 50.56c17.74,18.7 39.12,32.2 57.16,50.47l80.82 82.47c9.3,10.8 12.65,20.31 21.51,30.8 5.96,7.06 7.59,6.59 13.69,13.86l46.44 69.15c11.32,22.39 18.45,19.05 30.16,41.6l39.23 71.88c2.6,4.77 1.85,4.22 4.29,9.52 14.41,31.18 32.94,76.61 41.29,108.28 4.37,16.57 2.14,5.54 6.84,17.51 8.96,22.81 11.97,41.95 14.73,69.4 1.76,17.56 6.76,24.4 9.29,42.87 9.21,67.06 17.41,137.07 10.27,206.54 -7.23,70.32 -21.57,157.04 -48.94,221.28 -3.79,8.9 -3.51,12.37 -6.42,21.31l-40.79 95.34c-22.35,40.85 -42.28,80.55 -70.96,116.79 -14.7,18.58 -13.38,22.8 -29.67,40.37l-22.51 28.99c-5.88,7.53 -2.34,2.37 -5.88,7.85 -6.96,10.8 -1.81,6.89 -11.76,16.77 -17.77,17.66 -29.77,37.5 -63.55,71.71 -44.69,45.28 -91.36,90.1 -144.02,126.84 -7.28,5.07 -9.1,6.73 -16.33,11.5l-25.45 13.33c-0.6,0.39 -1.4,1.03 -1.98,1.45l-13.69 10.49c-46.64,35.25 -61.07,48.1 -60.29,117.11 0.18,16.18 -0.65,35.97 1.06,51.7 1.69,15.49 6.98,28.94 8.25,45.86l24.55 140.14 41.31 123.09c2.51,9.23 9.9,30.02 19.32,41.64l7.18 11.04c4.06,7.63 5.22,11.5 8.9,19.11l30.43 52.89c6.43,12 5.74,4.9 10.26,20.07zm-4986.9 -4302.1c4.96,41.03 0.68,1185.5 0.68,1224.31 0,101.58 -1.72,204.68 0.59,306.08 0.99,43.6 28.69,139.69 46.43,181.96 17.01,40.54 33.68,78.29 59.69,110.86l26.41 32.56c16.99,22.2 33.12,43.51 54.69,60.37 0.82,0.64 3.25,2.47 4.11,3.07l4.37 2.8c12.78,8.44 20.1,20.49 31.43,30.44 31.09,27.31 108.58,69.79 145.81,83.93 8.56,3.25 18.43,8.7 25.61,12.31 0.01,52.04 -17.88,116.87 -30.13,167.34l-70.94 168.43c-0.41,0.63 -1,1.47 -1.41,2.11l-15.32 22.88c-6.61,8.47 -8.84,11.39 -15.52,22.49 -35.94,59.67 -87.02,87.32 -99.79,144.75 -8.38,37.67 19.91,79.38 55.9,88.07 65.94,15.92 135.57,17.65 205.75,16.28 49.47,-0.96 142.1,-13.5 192.4,-29.67l46.33 -12.87c25.01,-9.86 75.28,-20.68 91.13,-31.17 15.31,-10.12 7.64,-5.13 26.97,-11.31 7.59,-2.43 20.69,-8.93 28.46,-13.31 17.33,-9.79 34.74,-18.54 52.09,-27.94l23.18 -14.77c14.44,-10.15 35.73,-19.39 48.33,-31.37 20.64,-19.63 51.02,-37.04 70.58,-54.65 7.34,-6.61 14.44,-12.62 20.35,-18.05l7.21 -6.56c0.52,-0.48 1.27,-1.18 1.79,-1.67 44.84,-41.99 91.35,-91.74 124.06,-144.08l8.2 -12.39c0.43,-0.59 1.06,-1.4 1.49,-2 0.44,-0.6 1.06,-1.42 1.49,-2.02 0.34,-0.46 4.31,-6 4.4,-6.13 5.9,-8.35 10.87,-15 17.31,-23.97 7.17,-9.99 8.56,-13.12 14.29,-24.24 8.58,-16.68 22.5,-33.35 29.06,-50.79l38.93 -83.7c33.95,-0.63 71.55,4.21 97.53,-19.65 54.16,-49.76 21.55,-131.78 -38.19,-135.93 -32.42,-2.25 -138.11,-8.61 -164.47,9.92 -23.98,16.85 -23.59,32.41 -33.13,54.25 -0.3,0.68 -0.79,1.55 -1.11,2.22 -6.61,13.87 -13.4,23.31 -17.19,38.18 -4.53,17.74 -2.05,7.99 -9.06,22.19l-49.91 96c-0.43,0.6 -1.08,1.38 -1.49,1.99 -0.43,0.62 -1.05,1.43 -1.47,2.06l-19.15 29.51c-4.28,6.01 -7.94,11.68 -12.93,18.29 -10.12,13.41 -17.07,15.49 -27.08,28.17l-4.56 5.91c-44.18,57.67 -134.82,143.32 -198.11,171.1 -20.39,8.95 -32.34,22.44 -53.87,32.32l-83.36 34.99c-29.11,10.56 -60.78,15.84 -89.78,25.62 -27.84,9.39 -125.82,22.72 -154.8,21.84 -0.33,-17.97 5.1,-20.88 13.45,-35.27l42.97 -75.04c0.39,-0.67 0.99,-1.5 1.4,-2.14 0.39,-0.63 1.05,-1.41 1.42,-2.02l13.72 -39.41c4.02,-12.35 0.86,-7.51 6.32,-17.48l15.67 -36.23c10.91,-29.4 30,-83.12 33.93,-115.14 2.22,-18.12 7.23,-27.93 9.3,-42.59 6.28,-44.48 23.88,-142.65 11.45,-184.68 -0.99,-3.35 -2.02,-5 -2.95,-7.03 -27.17,-59.55 -65.72,-49.2 -120.14,-70.98l-49.45 -23.45c-5.79,-3.35 -12.58,-6.14 -18.09,-9.74l-49.01 -37.72c-0.77,-0.67 -2.92,-2.69 -3.67,-3.38 -0.53,-0.49 -1.26,-1.22 -1.8,-1.71 -0.53,-0.49 -1.26,-1.21 -1.79,-1.7 -29.31,-27.25 -36.03,-33 -60.52,-64.7l-10.46 -14.09c-7.23,-8.66 -10.14,-4.67 -17.78,-19.2 -25.33,-48.16 -44.91,-94.49 -55.3,-147.2 -7.12,-36.15 -9,-53.96 -9.11,-95.38l-0 -1414.75c0.13,-59.37 7.92,-56.76 10,-90.23 2.08,-33.39 3.24,-20.49 10.83,-41.26l10.72 -39.77c1.5,-21.16 22.74,-53.44 31.3,-68.48 17.86,-31.37 22.84,-80.22 -11.39,-104.03 -0.59,-0.41 -1.54,-0.9 -2.12,-1.29 -10.05,-6.74 -19.52,-16.8 -35.44,-20.34 -17.19,-3.82 -30.3,0.25 -42.98,6.36 -47.74,23.02 -74.87,103.14 -94.22,148.04 -10.59,24.58 -14.04,54.25 -21.89,75.63 -5.16,14.06 -4.89,26.61 -6.43,42.96 -0.55,5.83 -1.16,16.99 -2.27,22.13 -2.82,13.09 -0.46,11.93 -9.94,13.91zm0 0c9.48,-1.98 7.11,-0.83 9.94,-13.91 1.11,-5.14 1.72,-16.31 2.27,-22.13 1.54,-16.34 1.26,-28.89 6.43,-42.96 7.85,-21.37 11.31,-51.04 21.89,-75.63 19.35,-44.9 46.48,-125.03 94.22,-148.04 12.68,-6.11 25.78,-10.18 42.98,-6.36 15.93,3.54 25.39,13.6 35.44,20.34 0.59,0.39 1.53,0.88 2.12,1.29 34.24,23.81 29.25,72.66 11.39,104.03 -8.56,15.04 -29.79,47.32 -31.3,68.48 14.29,-9.51 17.31,-31.18 38.66,-64.83 14.77,-23.28 23.27,-50.19 12,-78.96 -27.32,-69.72 -115.91,-85.35 -163.25,-2.96 -28.46,49.51 -30.32,52.92 -52.18,111.33l-8.71 14.71c-2.35,6.31 -1.28,14.67 -2.49,21.66 -4.22,24.26 -5.85,-2.17 -10.09,41.84 -1.68,17.44 -4.1,17.05 -5.81,22.86 -4.31,14.62 -5.04,34.31 -3.51,49.26zm925.33 298.85c178.87,0 1853.19,5.24 1880.5,-3.26 75.88,-23.62 81.67,-159.99 -34.74,-159.99l-1853.59 0c-29.27,0 -47.58,5.03 -63.41,23.22 -17.72,20.36 -28.25,26.91 -27.79,61.03 0.4,30.16 15.5,54.52 39.79,68.67l6.81 3.84c1.37,0.69 9.37,3.77 9.39,3.77 12.71,3.23 29.61,2.72 43.04,2.72zm2408.88 2614.61l1188.8 0c40.83,0 72.97,-17.39 87.08,-50.93 14.29,-33.93 1.3,-67.33 -20.65,-89.87 -18.59,-19.08 -41.05,-22.38 -66.43,-22.38l-1195.75 0c-39.23,0 -67.98,13.01 -78.4,48 -3.63,12.19 -29.74,52.76 19.75,94.26 17.29,14.5 34.91,20.91 65.6,20.91zm-6.95 389.74l629.16 0c25.74,0 40.23,-6.05 59.17,-20.81 40.39,-31.5 33.64,-90.5 1.52,-120.08 -16.67,-15.35 -32.8,-20.62 -64.16,-20.62l-625.69 0c-16.67,0.02 -24.5,-1.07 -37.78,5.07 -29.22,13.5 -52.19,40.41 -52.03,76.33 0.21,46.45 37.78,80.1 89.8,80.1zm1359.69 -3079.81c-37.47,14.96 -21.08,6.35 -56.74,41.03l-145.64 146.28c-28.04,26.71 -82.77,72.5 -83.86,111.4 -0.54,19.08 2.57,25.86 8.29,40.9 13.04,34.32 58.77,57.74 98.27,44 16.85,-5.85 30.65,-18.21 43.01,-29.84 0.45,-0.42 4.47,-4.01 5.55,-4.99l8.71 -8.49c0.47,-0.52 1.12,-1.33 1.58,-1.86l8.09 -9.33c4.48,-4.7 6.64,-6.52 12.16,-12.14 5.2,-5.3 6.27,-6.38 12.63,-11.77 0.55,-0.46 1.38,-1.08 1.92,-1.55l58.71 -59.43c65.08,-69.85 190.21,-149.89 101.42,-228.63 -17.56,-15.58 -44.37,-27.44 -74.09,-15.57zm-0.56 851.63c48.88,0 304.76,5.06 333.07,-4.49 1.74,-0.59 12.69,-4.29 15.31,-5.6 0.19,-0.09 11.87,-8.7 11.94,-8.77 21.16,-20.66 26.96,-34.54 27.24,-61.18 0.36,-34.77 -7.78,-42.15 -24.14,-60.79 -18.23,-20.77 -28.63,-22.41 -64.48,-22.41l-302.41 0c-31.07,0 -45.2,3.48 -64.05,19.23 -17,14.21 -24.34,33.84 -24.05,63.99 0.28,28.84 10,45.72 26.6,58.22 20.23,15.22 33.78,21.8 64.97,21.8zm-752.76 -1049.92l0 302.41c0,44.09 28.66,86.89 78.26,88.28 16.36,0.46 24.99,0.97 37.53,-5.5 38.99,-20.11 47.45,-41.05 47.45,-82.78 0,-43.51 6.13,-318.83 -5.27,-339.97 -3.54,-6.57 -3.01,-3.73 -7.42,-12.6 -11.98,-24.06 -32.14,-38.43 -68.56,-38.26 -54.38,0.25 -81.99,39.42 -81.99,88.42z"/>
 </g>
</svg>
